<mxfile host="65bd71144e">
    <diagram id="9CN7TV0kP64peijkzni-" name="Page-1">
        <mxGraphModel dx="1936" dy="1925" grid="1" gridSize="10" guides="1" tooltips="1" connect="1" arrows="1" fold="1" page="1" pageScale="1" pageWidth="850" pageHeight="1100" math="0" shadow="0">
            <root>
                <mxCell id="0"/>
                <mxCell id="1" parent="0"/>
                <mxCell id="5" value="" style="edgeStyle=none;html=1;rounded=0;" edge="1" parent="1" source="3" target="4">
                    <mxGeometry relative="1" as="geometry"/>
                </mxCell>
                <mxCell id="3" value="&lt;h1&gt;START&lt;/h1&gt;" style="ellipse;whiteSpace=wrap;html=1;fillColor=#008a00;fontColor=#ffffff;strokeColor=#005700;rounded=0;" vertex="1" parent="1">
                    <mxGeometry x="-717.5" y="-760" width="115" height="80" as="geometry"/>
                </mxCell>
                <mxCell id="9" value="" style="edgeStyle=none;html=1;rounded=0;" edge="1" parent="1" source="4" target="8">
                    <mxGeometry relative="1" as="geometry"/>
                </mxCell>
                <mxCell id="4" value="Get Inputs for square/rect area" style="shape=parallelogram;perimeter=parallelogramPerimeter;whiteSpace=wrap;html=1;fixedSize=1;fillColor=#fa6800;strokeColor=#C73500;fontColor=#000000;rounded=0;" vertex="1" parent="1">
                    <mxGeometry x="-717.5" y="-610" width="120" height="60" as="geometry"/>
                </mxCell>
                <mxCell id="8" value="Call Rect calculate area" style="shape=process;whiteSpace=wrap;html=1;backgroundOutline=1;fillColor=#e3c800;strokeColor=#B09500;fontColor=#000000;rounded=0;" vertex="1" parent="1">
                    <mxGeometry x="-717.5" y="-490" width="120" height="60" as="geometry"/>
                </mxCell>
                <mxCell id="12" value="" style="edgeStyle=none;html=1;rounded=0;" edge="1" parent="1" source="10" target="11">
                    <mxGeometry relative="1" as="geometry"/>
                </mxCell>
                <mxCell id="10" value="Calculate Rect area" style="shape=process;whiteSpace=wrap;html=1;backgroundOutline=1;fillColor=#e3c800;strokeColor=#B09500;fontColor=#000000;rounded=0;" vertex="1" parent="1">
                    <mxGeometry x="-470" y="-760" width="120" height="80" as="geometry"/>
                </mxCell>
                <mxCell id="14" value="" style="edgeStyle=none;html=1;rounded=0;" edge="1" parent="1" source="11" target="13">
                    <mxGeometry relative="1" as="geometry"/>
                </mxCell>
                <mxCell id="11" value="&lt;h1&gt;START&lt;/h1&gt;" style="ellipse;whiteSpace=wrap;html=1;fillColor=#008a00;fontColor=#ffffff;strokeColor=#005700;rounded=0;" vertex="1" parent="1">
                    <mxGeometry x="-467.5" y="-620" width="115" height="80" as="geometry"/>
                </mxCell>
                <mxCell id="18" value="" style="edgeStyle=none;html=1;" edge="1" parent="1" source="13" target="17">
                    <mxGeometry relative="1" as="geometry"/>
                </mxCell>
                <mxCell id="13" value="Multiply width * height" style="whiteSpace=wrap;html=1;fillColor=#0050ef;strokeColor=#001DBC;fontColor=#ffffff;rounded=0;" vertex="1" parent="1">
                    <mxGeometry x="-470" y="-490" width="120" height="60" as="geometry"/>
                </mxCell>
                <mxCell id="17" value="Return Area" style="shape=parallelogram;perimeter=parallelogramPerimeter;whiteSpace=wrap;html=1;fixedSize=1;fillColor=#fa6800;strokeColor=#C73500;fontColor=#000000;rounded=0;" vertex="1" parent="1">
                    <mxGeometry x="-467.5" y="-380" width="120" height="60" as="geometry"/>
                </mxCell>
            </root>
        </mxGraphModel>
    </diagram>
</mxfile>